<svg version="1" xmlns="http://www.w3.org/2000/svg" width="341.333" height="341.333" viewBox="0 0 256.000000 256.000000"><path d="M0 128v128h256V0H0v128zm83.5-65.1c2.2 1 5.4 3.4 7.2 5.2 1.7 1.9 10.4 15.5 19.4 30.4 8.9 14.8 16.7 27.6 17.4 28.3.9 1 4.8-4.7 18.3-27 16.9-28 20.6-33 26.9-36.2 3.7-1.9 15.3-2.2 18.6-.5 3.2 1.6 7.7 6 9.2 8.9.7 1.4 5.9 25.3 11.4 53.2 7.6 37.8 10 51.7 9.5 54.4-2.2 11.9-20.2 18.8-31.7 12.1-6.9-4.1-8.9-8.4-13.7-29.7-2.3-10.2-4.3-19.2-4.6-20.1-.3-1-3.8 1.8-11.7 9.6C146.1 165 137.5 170 128 170c-10.2 0-22.6-7.8-37.1-23.6l-5.6-6-4.2 18.5c-4.9 21.7-6.2 25-11.1 29.5-4.8 4.3-10 6-16.1 5.3-11.4-1.4-19.4-9.1-19.1-18.4.2-5.4 19.2-99.6 20.9-103.5 1.9-4.5 4.6-7.2 9.3-9.2 4.9-2.1 13.6-2 18.5.3z"/></svg>